<svg viewBox="0 0 24 24" xml:space="preserve" xmlns="http://www.w3.org/2000/svg" enable-background="new 0 0 24 24"><path d="M19.5 21.5h-16v.5A1.5 1.5 0 0 0 5 23.5h13a1.5 1.5 0 0 0 1.5-1.5v-.5zM14.5 5a2.5 2.5 0 1 1-5 0C9.5 3.619 12 .5 12 .5s.322.929 1 2c.561.888 1.5 1.417 1.5 2.5zM12 9V6.5" fill="none" stroke="#ffffff" stroke-linecap="round" stroke-linejoin="round" stroke-miterlimit="10" class="stroke-303c42"></path><circle cx="19.5" cy="20.5" r="1" fill="none" stroke="#ffffff" stroke-linecap="round" stroke-linejoin="round" stroke-miterlimit="10" class="stroke-303c42"></circle><path d="M8.5 11.412V21.5M15.5 21.5v-7.206M13.5 11.5c1.524.65.672 3 1.5 3s1.5-1.343 1.5-3-.672-3-1.5-3c0 0-2.25.5-3 .5s-3-.5-3-.5a1.5 1.5 0 0 0 0 3c.394 0 .655-.408 1.019-.4.606.013 1.374 1.391 1.981 1.4.451.006 1.085-1.177 1.5-1z" fill="none" stroke="#ffffff" stroke-linecap="round" stroke-linejoin="round" stroke-miterlimit="10" class="stroke-303c42"></path></svg>